# xmcd
# Copyright (C) 1995-1998 Ti Kan
#
# Track frame offsets:
#       151
#       14731
#       28555
#       57674
#       80562
#       96936
#       123432
#       140626
#       163863
#       189595
#       203206
#       231251
#       253002
#       280239
#       299700
#       313866
#
# Disc length: 4511 seconds
#
# Revision: 0
# Processed by: cddbd v1.5.2PL0 Copyright (c) Steve Scherf et al.
# Submitted via: CD-Transfer v1.0
#
DISCID=00119d10
DTITLE=Cactus - 
DYEAR=1900
DGENRE=
TTITLE0=Evil
TTITLE1=Parchman Fam
TTITLE2=You Can't Judge A Book By It's Cover
TTITLE3=One Way, Or Another
TTITLE4=Alaska
TTITLE5=Long Tall Sally
TTITLE6=Let Me Swim
TTITLE7=Brother Bill
TTITLE8=Rock 'n' Roll Children
TTITLE9=Song For Aries
TTITLE10=Restrictions
TTITLE11=Oleo
TTITLE12=Feel So Bad
TTITLE13=Rumblin' Man
TTITLE14=Bad Stuff
TTITLE15=Big Mama Boogie
EXTD=
EXTT0=
EXTT1=
EXTT2=
EXTT3=
EXTT4=
EXTT5=
EXTT6=
EXTT7=
EXTT8=
EXTT9=
EXTT10=
EXTT11=
EXTT12=
EXTT13=
EXTT14=
EXTT15=
PLAYORDER=
